<svg width="16.0" height="18.000000" viewBox="0 0 16.9997 19" fill="none" xmlns="http://www.w3.org/2000/svg" xmlns:xlink="http://www.w3.org/1999/xlink">
	<desc>
			Created with Pixso.
	</desc>
	<defs/>
	<path id="Vector" d="M1.3 11.69C1.42 11.57 1.5 11.4 1.5 11.22L1.5 7.5C1.5 3.63 4.63 0.5 8.5 0.5C12.36 0.49 15.5 3.63 15.5 7.5L15.5 11.22C15.5 11.4 15.57 11.57 15.69 11.69L16.08 12.08C16.2 12.2 16.26 12.26 16.31 12.33C16.4 12.45 16.46 12.6 16.48 12.75C16.49 12.83 16.49 12.91 16.49 13.08C16.49 13.47 16.49 13.66 16.44 13.81C16.34 14.11 16.11 14.34 15.82 14.44C15.66 14.5 15.47 14.5 15.09 14.5L11.5 14.5L5.5 14.5L1.9 14.5C1.52 14.5 1.33 14.5 1.18 14.44C0.88 14.34 0.65 14.11 0.55 13.81C0.5 13.66 0.5 13.47 0.5 13.08C0.5 12.91 0.5 12.83 0.51 12.75C0.53 12.6 0.59 12.45 0.68 12.33C0.73 12.26 0.79 12.2 0.91 12.08L1.3 11.69ZM11.5 14.5L11.5 15.5C11.5 17.15 10.15 18.5 8.5 18.5C6.84 18.5 5.5 17.15 5.5 15.5L5.5 14.5" stroke="#000000" stroke-opacity="1.000000" stroke-width="1.000000" stroke-linejoin="round"/>
</svg>
