<svg width="18.000000" height="18.000000" viewBox="0 0 19 19" fill="none" xmlns="http://www.w3.org/2000/svg" xmlns:xlink="http://www.w3.org/1999/xlink">
	<desc>
			Created with Pixso.
	</desc>
	<defs/>
	<path id="Vector" d="M0.5 9.5C0.5 4.52 4.52 0.5 9.5 0.5C14.47 0.5 18.5 4.52 18.5 9.5C18.5 14.47 14.47 18.5 9.5 18.5C4.52 18.5 0.5 14.47 0.5 9.5ZM14.71 16.83C13.43 15.4 11.57 14.5 9.5 14.5C7.42 14.5 5.56 15.4 4.28 16.83M6.5 8.5C6.5 6.84 7.84 5.5 9.5 5.5C11.15 5.5 12.5 6.84 12.5 8.5C12.5 10.15 11.15 11.5 9.5 11.5C7.84 11.5 6.5 10.15 6.5 8.5Z" stroke="#000000" stroke-opacity="1.000000" stroke-width="1.000000" stroke-linejoin="round" stroke-linecap="round"/>
</svg>
