<svg width="20.0" height="19.0" viewBox="0 0 20.9917 19.8565" fill="none" xmlns="http://www.w3.org/2000/svg" xmlns:xlink="http://www.w3.org/1999/xlink">
	<desc>
			Created with Pixso.
	</desc>
	<defs/>
	<path id="Vector" d="M18.84 6.85L18.84 6.85C19.44 7.18 19.74 7.34 19.95 7.58C20.15 7.79 20.29 8.04 20.38 8.31C20.48 8.61 20.48 8.95 20.49 9.64L20.49 10.21C20.49 10.89 20.49 11.23 20.39 11.54C20.3 11.81 20.15 12.06 19.96 12.27C19.74 12.5 19.44 12.67 18.84 13L18.48 13.2L18.47 13.21C18.42 13.24 18.39 13.25 18.37 13.27C18.09 13.43 17.86 13.66 17.69 13.93C17.67 13.96 17.66 13.98 17.62 14.04C17.59 14.1 17.58 14.12 17.56 14.15C17.41 14.43 17.33 14.75 17.32 15.07C17.32 15.1 17.32 15.13 17.33 15.2L17.33 15.64C17.34 16.31 17.35 16.65 17.25 16.95C17.17 17.22 17.03 17.47 16.84 17.69C16.63 17.93 16.33 18.1 15.74 18.44L15.25 18.73C14.66 19.07 14.36 19.24 14.04 19.31C13.76 19.37 13.48 19.36 13.2 19.3C12.88 19.23 12.59 19.05 12 18.7L11.62 18.48C11.58 18.45 11.55 18.43 11.53 18.42C11.25 18.27 10.94 18.18 10.62 18.17C10.59 18.17 10.56 18.17 10.49 18.17C10.43 18.17 10.39 18.17 10.36 18.17C10.04 18.18 9.73 18.27 9.45 18.42C9.43 18.44 9.4 18.45 9.34 18.49L8.99 18.7C8.4 19.05 8.11 19.23 7.79 19.3C7.52 19.36 7.23 19.36 6.95 19.3C6.63 19.24 6.34 19.07 5.75 18.72L5.25 18.44C4.66 18.1 4.36 17.93 4.15 17.69C3.96 17.47 3.81 17.22 3.73 16.95C3.63 16.64 3.64 16.3 3.65 15.61L3.66 15.21C3.66 15.14 3.66 15.1 3.66 15.07C3.65 14.75 3.57 14.45 3.43 14.17C3.41 14.14 3.39 14.11 3.36 14.05C3.32 13.99 3.31 13.96 3.29 13.93C3.12 13.66 2.89 13.43 2.62 13.27C2.59 13.25 2.56 13.23 2.5 13.2L2.14 13C1.54 12.67 1.25 12.5 1.03 12.27C0.84 12.06 0.69 11.81 0.6 11.54C0.5 11.24 0.5 10.89 0.5 10.21L0.5 9.65C0.49 8.96 0.49 8.62 0.59 8.31C0.68 8.04 0.83 7.79 1.02 7.58C1.24 7.34 1.54 7.18 2.14 6.84L2.51 6.64C2.56 6.61 2.59 6.6 2.62 6.58C2.89 6.42 3.12 6.19 3.29 5.92C3.31 5.89 3.33 5.86 3.36 5.81C3.39 5.75 3.41 5.72 3.42 5.69C3.57 5.41 3.65 5.1 3.66 4.78C3.66 4.75 3.66 4.72 3.66 4.65L3.65 4.23C3.64 3.54 3.63 3.2 3.73 2.89C3.81 2.62 3.95 2.37 4.14 2.16C4.36 1.92 4.65 1.75 5.24 1.41L5.24 1.4L5.73 1.12L5.73 1.12C6.33 0.78 6.62 0.6 6.94 0.54C7.22 0.48 7.51 0.48 7.79 0.54C8.1 0.61 8.4 0.79 8.98 1.15L9.34 1.36C9.4 1.39 9.42 1.41 9.45 1.43C9.73 1.58 10.04 1.67 10.36 1.68C10.39 1.68 10.43 1.68 10.49 1.68C10.56 1.68 10.59 1.68 10.62 1.68C10.94 1.67 11.25 1.58 11.53 1.43C11.56 1.41 11.59 1.39 11.64 1.36L12 1.15L12 1.15C12.58 0.8 12.88 0.62 13.19 0.55C13.47 0.49 13.75 0.49 14.03 0.54C14.35 0.61 14.64 0.78 15.24 1.12L15.73 1.41C16.33 1.75 16.62 1.92 16.84 2.16C17.03 2.37 17.17 2.62 17.25 2.9C17.35 3.2 17.34 3.54 17.33 4.22L17.33 4.65C17.32 4.71 17.32 4.75 17.32 4.78C17.33 5.1 17.41 5.41 17.56 5.69C17.58 5.72 17.59 5.75 17.63 5.81C17.66 5.86 17.67 5.89 17.69 5.92C17.86 6.19 18.09 6.42 18.36 6.58C18.39 6.6 18.42 6.61 18.47 6.64L18.84 6.85ZM6.49 9.92C6.49 7.71 8.28 5.92 10.49 5.92C12.7 5.92 14.49 7.71 14.49 9.92C14.49 12.13 12.7 13.92 10.49 13.92C8.28 13.92 6.49 12.13 6.49 9.92Z" stroke="#000000" stroke-opacity="1.000000" stroke-width="1.000000" stroke-linejoin="round"/>
</svg>
