<svg width="19.694336" height="17.003906" viewBox="0 0 19.6943 17.0039" fill="none" xmlns="http://www.w3.org/2000/svg" xmlns:xlink="http://www.w3.org/1999/xlink">
	<desc>
			Created with Pixso.
	</desc>
	<defs/>
	<path id="Vector" d="M1.84 0.5L17.84 16.5M14.34 13.25C12.99 13.98 11.46 14.5 9.84 14.5C6.31 14.5 3.21 12.04 1.43 10.28C0.96 9.81 0.72 9.58 0.58 9.12C0.47 8.79 0.47 8.2 0.58 7.88C0.72 7.42 0.96 7.18 1.43 6.72C2.33 5.83 3.56 4.76 5.01 3.92M17.34 11.13C17.68 10.84 17.98 10.55 18.25 10.28L18.26 10.27C18.73 9.81 18.96 9.57 19.11 9.12C19.22 8.79 19.22 8.2 19.11 7.88C18.96 7.42 18.73 7.18 18.26 6.72C16.48 4.95 13.37 2.5 9.84 2.5C9.5 2.5 9.17 2.52 8.84 2.56M11.16 10C10.81 10.31 10.35 10.5 9.84 10.5C8.74 10.5 7.84 9.6 7.84 8.5C7.84 7.96 8.06 7.47 8.4 7.11" stroke="#888888" stroke-opacity="1.000000" stroke-width="1.000000" stroke-linejoin="round" stroke-linecap="round"/>
</svg>
