<svg width="19.694336" height="13.000000" viewBox="0 0 19.6943 13" fill="none" xmlns="http://www.w3.org/2000/svg" xmlns:xlink="http://www.w3.org/1999/xlink">
	<desc>
			Created with Pixso.
	</desc>
	<defs/>
	<path id="Vector" d="M1.43 8.27C0.96 7.81 0.72 7.57 0.58 7.12C0.47 6.79 0.47 6.2 0.58 5.87C0.72 5.42 0.96 5.18 1.43 4.72C3.21 2.95 6.31 0.5 9.84 0.5C13.37 0.5 16.48 2.95 18.26 4.72C18.72 5.18 18.96 5.42 19.11 5.87C19.22 6.2 19.22 6.79 19.11 7.12C18.96 7.57 18.72 7.81 18.26 8.27C16.48 10.04 13.37 12.5 9.84 12.5C6.31 12.5 3.21 10.04 1.43 8.27ZM7.84 6.5C7.84 5.39 8.74 4.5 9.84 4.5C10.95 4.5 11.84 5.39 11.84 6.5C11.84 7.6 10.95 8.5 9.84 8.5C8.74 8.5 7.84 7.6 7.84 6.5Z" stroke="#888888" stroke-opacity="1.000000" stroke-width="1.000000" stroke-linejoin="round"/>
</svg>
